# xmcd CD database file
# Copyright (C) 1996 Ti Kan
#
# Track frame offsets:
#  150
#  13295
#  23820
#  31875
#  43537
#  53352
#  63202
#  73487
#  84800
#  94210
#  104297
#  116540
#
# Disc length: 1709 seconds
#
# Revision: 1
# Processed by: cddbd v1.4b41PL1 Copyright (c) Steve Scherf et al.
# Submitted via: CDWizzard Release:4.12
#
DISCID=9206ab0c
DTITLE=Bill Monroe - Orange Blossom Special
DYEAR=1900
DGENRE=
TTITLE0=Orange Blossom Special
TTITLE1=Uncle Penn
TTITLE2=Footprints in the Snow
TTITLE3=Bluegrass Breakdown
TTITLE4=I Saw the Light
TTITLE5=Shady Grove
TTITLE6=Shenendoah Breakdown
TTITLE7=Mule Skinner Blues
TTITLE8=Prison Song
TTITLE9=Blue Moon of Kentucky
TTITLE10=Can't You Hear Me Callin'
TTITLE11=Nine Pound Hammer
EXTD=
EXTT0=
EXTT1=
EXTT2=
EXTT3=
EXTT4=
EXTT5=
EXTT6=
EXTT7=
EXTT8=
EXTT9=
EXTT10=
EXTT11=
PLAYORDER=
